<svg xmlns="http://www.w3.org/2000/svg" width="178" height="50" viewBox="0 0 178 50" fill="none"><g clip-path="url(#clip0_132_320)"><path d="M48.3412 23.3601H39.2072V19.0073L47.4083 0.311523H52.306V19.6687H55.8426V23.3601H52.306V31.7943H48.3412V23.3601ZM48.3412 19.6687V5.364L43.2102 19.6687H48.3412Z" fill="white"></path><path d="M58.6759 22.8535V9.29033C58.6759 3.76959 61.0081 0.0380859 66.4889 0.0380859C71.9697 0.0380859 74.2618 3.76959 74.2618 9.29033V22.8535C74.2618 28.2959 71.8513 32.1422 66.4889 32.1422C61.1266 32.1422 58.6759 28.2558 58.6759 22.8535ZM70.0638 22.8917V9.25206C70.0638 6.22021 69.4807 3.42159 66.4889 3.42159C63.4971 3.42159 62.8739 6.21839 62.8739 9.25206V22.8936C62.8739 25.8088 63.5736 28.724 66.4889 28.724C69.4042 28.724 70.0638 25.8088 70.0638 22.8936V22.8917Z" fill="white"></path><path d="M87.1621 0.311523H90.1558V16.9466L98.55 0.311523H101.387L94.935 13.8382L102.786 31.7943H99.871L92.9526 16.0538L90.1539 21.1846V31.7961H87.1603V0.311523H87.1621Z" fill="white"></path><path d="M105.581 0.311523H107.72L117.749 24.7595V0.311523H120.315V31.7943H118.215L108.149 7.07488V31.7943H105.583V0.311523H105.581Z" fill="white"></path><path d="M125.128 22.5056V9.44537C125.128 3.73151 127.111 0 133.251 0C139.392 0 141.297 3.76977 141.297 9.44537V22.5439C141.297 28.2177 139.432 32.1824 133.251 32.1824C127.071 32.1824 125.128 28.2177 125.128 22.5056ZM138.306 23.167V8.90059C138.306 4.8976 137.373 2.37228 133.253 2.37228C129.133 2.37228 128.122 4.89942 128.122 8.90059V23.167C128.122 27.1318 129.055 29.8138 133.253 29.8138C137.451 29.8138 138.306 27.1318 138.306 23.167Z" fill="white"></path><path d="M150.078 2.60545H144.131V0.311523H158.824V2.60545H153.032V31.7943H150.078V2.60545Z" fill="white"></path><path d="M161.112 23.6317L163.716 22.8555C164.144 26.7419 165.156 29.7737 169.004 29.7737C171.801 29.7737 173.435 28.4126 173.435 25.2259C173.435 22.4273 171.957 20.6782 169.587 18.4243L164.03 13.0985C162.009 11.1945 161.153 9.21216 161.153 6.76335C161.153 2.41054 163.989 0 168.266 0C172.814 0 175.379 2.17732 175.806 7.96771L173.278 8.62911C172.967 4.66438 171.879 2.33219 168.264 2.33219C165.66 2.33219 163.833 3.65498 163.833 6.49187C163.833 8.20275 164.416 9.52372 166.048 11.0779L171.606 16.3253C174.055 18.6557 176.192 21.4562 176.192 25.031C176.192 29.7336 173.198 32.1824 168.962 32.1824C163.831 32.1824 161.46 28.7625 161.111 23.6317H161.112Z" fill="white"></path><path d="M4.12695 41.7385L31.0899 49.9996L35.9985 33.9785L4.12695 41.7385Z" fill="white"></path><path d="M17.2113 41.1484L27.5314 10.1503L12.5796 5.17432L17.2113 41.1484Z" fill="#C8E3FF"></path><path d="M15.5878 41.3707L0 21.7475L11.8343 12.3477L15.5878 41.3707Z" fill="#9FBACA"></path><path d="M18.667 20.481L20.8936 42.0155L31.2793 40.9423L18.667 20.481Z" fill="#FF4200"></path><path d="M39.4258 40.7714L39.5916 40.4453C39.8776 40.7258 40.3896 40.9336 40.918 40.9336C41.6706 40.9336 41.9967 40.6183 41.9967 40.2211C41.9967 39.1188 39.5242 39.7966 39.5242 38.3098C39.5242 37.7195 39.9833 37.2075 41.0055 37.2075C41.4592 37.2075 41.9293 37.3387 42.25 37.5628L42.106 37.9017C41.7617 37.6776 41.3608 37.5683 41.0037 37.5683C40.2694 37.5683 39.9414 37.8944 39.9414 38.2971C39.9414 39.3994 42.414 38.7326 42.414 40.1956C42.414 40.786 41.9439 41.2907 40.9162 41.2907C40.3131 41.2907 39.7228 41.0775 39.424 40.7678L39.4258 40.7714Z" fill="#C8E3FF"></path><path d="M45.8814 39.8768H43.356C43.4016 40.5072 43.8844 40.9263 44.544 40.9263C44.9121 40.9263 45.2382 40.7951 45.4678 40.5309L45.6974 40.7951C45.4277 41.1158 45.0086 41.2889 44.5331 41.2889C43.5911 41.2889 42.9497 40.6457 42.9497 39.7511C42.9497 38.8565 43.5747 38.2188 44.4238 38.2188C45.2728 38.2188 45.8869 38.8437 45.8869 39.7511C45.8869 39.7857 45.8814 39.8312 45.8814 39.8768ZM43.356 39.5725H45.497C45.4459 38.9822 45.0141 38.5686 44.4238 38.5686C43.8334 38.5686 43.4089 38.9822 43.356 39.5725Z" fill="#C8E3FF"></path><path d="M48.3101 41.0757C48.1498 41.2196 47.9093 41.2889 47.6724 41.2889C47.1039 41.2889 46.7887 40.9682 46.7887 40.4107V38.585H46.2494V38.2406H46.7887V37.5811H47.1969V38.2406H48.1152V38.585H47.1969V40.387C47.1969 40.7423 47.3809 40.9372 47.7198 40.9372C47.8856 40.9372 48.0532 40.8862 48.168 40.7824L48.312 41.0757H48.3101Z" fill="#C8E3FF"></path><path d="M53.0913 38.2427L51.5826 41.6225C51.3293 42.2129 51.0087 42.4024 50.5787 42.4024C50.2981 42.4024 50.0284 42.3113 49.8444 42.1272L50.0339 41.823C50.1833 41.9724 50.3673 42.0525 50.5841 42.0525C50.8538 42.0525 51.0378 41.9268 51.2091 41.5478L51.3403 41.2545L49.9919 38.2427H50.4165L51.5535 40.8081L52.6904 38.2427H53.0931H53.0913Z" fill="#C8E3FF"></path><path d="M53.2753 39.7511C53.2753 38.8565 53.9294 38.2188 54.8131 38.2188C55.6968 38.2188 56.3454 38.8565 56.3454 39.7511C56.3454 40.6457 55.6968 41.2889 54.8131 41.2889C53.9294 41.2889 53.2753 40.6457 53.2753 39.7511ZM55.9318 39.7511C55.9318 39.0459 55.4563 38.574 54.8131 38.574C54.1699 38.574 53.6889 39.0441 53.6889 39.7511C53.6889 40.458 54.1717 40.9281 54.8131 40.9281C55.4545 40.9281 55.9318 40.458 55.9318 39.7511Z" fill="#C8E3FF"></path><path d="M59.8984 38.2425V41.2616H59.5085V40.7114C59.2953 41.0794 58.9054 41.2908 58.4244 41.2908C57.6555 41.2908 57.1508 40.8608 57.1508 39.9935V38.2425H57.5589V39.9516C57.5589 40.5948 57.8923 40.9209 58.4663 40.9209C59.0967 40.9209 59.4939 40.5128 59.4939 39.8241V38.2407H59.9021L59.8984 38.2425Z" fill="#C8E3FF"></path><path d="M62.5605 38.2191V38.6145C62.5259 38.6145 62.4912 38.609 62.4621 38.609C61.8317 38.609 61.4472 39.0099 61.4472 39.7223V41.2601H61.0391V38.241H61.429V38.8313C61.6185 38.4305 62.0029 38.2173 62.5587 38.2173L62.5605 38.2191Z" fill="#C8E3FF"></path><path d="M64.5411 39.7511C64.5411 38.851 65.1953 38.2188 66.0972 38.2188C66.6074 38.2188 67.0392 38.4192 67.2797 38.8164L66.9754 39.0223C66.7695 38.718 66.447 38.574 66.0972 38.574C65.4376 38.574 64.9547 39.0441 64.9547 39.7511C64.9547 40.458 65.4376 40.9281 66.0972 40.9281C66.447 40.9281 66.7677 40.7896 66.9754 40.4872L67.2797 40.6931C67.0392 41.083 66.6092 41.2907 66.0972 41.2907C65.1971 41.2907 64.5411 40.653 64.5411 39.7529V39.7511Z" fill="#C8E3FF"></path><path d="M67.7206 39.7511C67.7206 38.8565 68.3747 38.2188 69.2584 38.2188C70.1421 38.2188 70.7908 38.8565 70.7908 39.7511C70.7908 40.6457 70.1421 41.2889 69.2584 41.2889C68.3747 41.2889 67.7206 40.6457 67.7206 39.7511ZM70.3771 39.7511C70.3771 39.0459 69.9016 38.574 69.2584 38.574C68.6152 38.574 68.1342 39.0441 68.1342 39.7511C68.1342 40.458 68.617 40.9281 69.2584 40.9281C69.8998 40.9281 70.3771 40.458 70.3771 39.7511Z" fill="#C8E3FF"></path><path d="M74.3439 38.2425V41.2616H73.9539V40.7114C73.7408 41.0794 73.3508 41.2908 72.8698 41.2908C72.1009 41.2908 71.5962 40.8608 71.5962 39.9935V38.2425H72.0043V39.9516C72.0043 40.5948 72.3378 40.9209 72.9117 40.9209C73.5422 40.9209 73.9394 40.5128 73.9394 39.8241V38.2407H74.3475L74.3439 38.2425Z" fill="#C8E3FF"></path><path d="M77.0076 38.2191V38.6145C76.973 38.6145 76.9384 38.609 76.9092 38.609C76.2788 38.609 75.8943 39.0099 75.8943 39.7223V41.2601H75.4862V38.241H75.8761V38.8313C76.0656 38.4305 76.4501 38.2173 77.0058 38.2173L77.0076 38.2191Z" fill="#C8E3FF"></path><path d="M77.3466 40.9155L77.5306 40.5948C77.7711 40.7843 78.1792 40.9337 78.6038 40.9337C79.1777 40.9337 79.4128 40.7387 79.4128 40.4399C79.4128 39.6546 77.4559 40.2741 77.4559 39.0807C77.4559 38.5869 77.8804 38.2207 78.6493 38.2207C79.0393 38.2207 79.4638 38.33 79.7171 38.5013L79.5385 38.8274C79.2743 38.6434 78.9591 38.5687 78.6493 38.5687C78.1045 38.5687 77.864 38.7819 77.864 39.0679C77.864 39.8824 79.8209 39.2684 79.8209 40.4272C79.8209 40.9501 79.3618 41.2872 78.5765 41.2872C78.0772 41.2872 77.5944 41.1268 77.3484 40.9137L77.3466 40.9155Z" fill="#C8E3FF"></path><path d="M83.199 39.8768H80.6737C80.7192 40.5072 81.2021 40.9263 81.8616 40.9263C82.2297 40.9263 82.5558 40.7951 82.7854 40.5309L83.015 40.7951C82.7453 41.1158 82.3263 41.2889 81.8507 41.2889C80.9087 41.2889 80.2673 40.6457 80.2673 39.7511C80.2673 38.8565 80.8923 38.2188 81.7414 38.2188C82.5905 38.2188 83.2045 38.8437 83.2045 39.7511C83.2045 39.7857 83.199 39.8312 83.199 39.8768ZM80.6737 39.5725H82.8146C82.7636 38.9822 82.3317 38.5686 81.7414 38.5686C81.151 38.5686 80.7265 38.9822 80.6737 39.5725Z" fill="#C8E3FF"></path><path d="M86.0069 37.8855V38.2408H86.9361V38.5851H86.0178V41.2599H85.6096V38.5851H85.0703V38.2408H85.6096V37.8673C85.6096 37.328 85.9303 36.9727 86.5225 36.9727C86.7466 36.9727 86.9762 37.0364 87.1256 37.1621L86.9871 37.4664C86.8723 37.368 86.712 37.317 86.5389 37.317C86.1891 37.317 86.005 37.512 86.005 37.8855H86.0069Z" fill="#C8E3FF"></path><path d="M87.1311 39.7511C87.1311 38.8565 87.7852 38.2188 88.6689 38.2188C89.5526 38.2188 90.2013 38.8565 90.2013 39.7511C90.2013 40.6457 89.5526 41.2889 88.6689 41.2889C87.7852 41.2889 87.1311 40.6457 87.1311 39.7511ZM89.7877 39.7511C89.7877 39.0459 89.3121 38.574 88.6689 38.574C88.0257 38.574 87.5447 39.0441 87.5447 39.7511C87.5447 40.458 88.0276 40.9281 88.6689 40.9281C89.3103 40.9281 89.7877 40.458 89.7877 39.7511Z" fill="#C8E3FF"></path><path d="M92.5554 38.2191V38.6145C92.5207 38.6145 92.4861 38.609 92.457 38.609C91.8265 38.609 91.4403 39.0099 91.4403 39.7223V41.2601H91.0321V38.241H91.422V38.8313C91.6115 38.4305 91.996 38.2173 92.5517 38.2173L92.5554 38.2191Z" fill="#C8E3FF"></path><path d="M94.4211 40.9155L94.6052 40.5948C94.8457 40.7843 95.2538 40.9337 95.6784 40.9337C96.2523 40.9337 96.4874 40.7387 96.4874 40.4399C96.4874 39.6546 94.5305 40.2741 94.5305 39.0807C94.5305 38.5869 94.955 38.2207 95.7239 38.2207C96.1138 38.2207 96.5384 38.33 96.7916 38.5013L96.6131 38.8274C96.3489 38.6434 96.0337 38.5687 95.7239 38.5687C95.1791 38.5687 94.9386 38.7819 94.9386 39.0679C94.9386 39.8824 96.8955 39.2684 96.8955 40.4272C96.8955 40.9501 96.4363 41.2872 95.651 41.2872C95.1518 41.2872 94.6689 41.1268 94.423 40.9137L94.4211 40.9155Z" fill="#C8E3FF"></path><path d="M97.5551 37.2895C97.5551 37.1346 97.6862 37.0034 97.8539 37.0034C98.0215 37.0034 98.1527 37.1291 98.1527 37.284C98.1527 37.4498 98.027 37.5828 97.8539 37.5828C97.6808 37.5828 97.5551 37.4516 97.5551 37.2895ZM97.6462 38.2424H98.0543V41.2615H97.6462V38.2424Z" fill="#C8E3FF"></path><path d="M104.171 39.5108V41.2618H103.763V39.5509C103.763 38.9132 103.442 38.587 102.896 38.587C102.276 38.587 101.886 38.9897 101.886 39.6766V41.2599H101.478V39.5491C101.478 38.9113 101.157 38.5852 100.605 38.5852C99.9912 38.5852 99.5958 38.9879 99.5958 39.6748V41.2581H99.1876V38.239H99.5775V38.7893C99.7907 38.4285 100.181 38.2153 100.685 38.2153C101.19 38.2153 101.575 38.4285 101.759 38.853C101.977 38.4631 102.407 38.2153 102.952 38.2153C103.686 38.2153 104.169 38.6399 104.169 39.5071L104.171 39.5108Z" fill="#C8E3FF"></path><path d="M108.338 39.7511C108.338 40.6694 107.695 41.2889 106.835 41.2889C106.354 41.2889 105.94 41.083 105.687 40.6912V42.373H105.279V38.2406H105.669V38.8382C105.915 38.4356 106.334 38.2188 106.833 38.2188C107.693 38.2188 108.336 38.8382 108.336 39.7511H108.338ZM107.93 39.7511C107.93 39.0514 107.442 38.574 106.806 38.574C106.17 38.574 105.681 39.0496 105.681 39.7511C105.681 40.4526 106.164 40.9281 106.806 40.9281C107.447 40.9281 107.93 40.458 107.93 39.7511Z" fill="#C8E3FF"></path><path d="M109.171 37.002H109.579V41.26H109.171V37.002Z" fill="#C8E3FF"></path><path d="M110.623 37.2895C110.623 37.1346 110.754 37.0034 110.922 37.0034C111.089 37.0034 111.221 37.1291 111.221 37.284C111.221 37.4498 111.095 37.5828 110.922 37.5828C110.749 37.5828 110.623 37.4516 110.623 37.2895ZM110.714 38.2424H111.122V41.2615H110.714V38.2424Z" fill="#C8E3FF"></path><path d="M113.239 36.9746C113.464 36.9746 113.693 37.0384 113.843 37.1641L113.704 37.4684C113.589 37.37 113.429 37.319 113.256 37.319C112.906 37.319 112.722 37.5139 112.722 37.8874V38.2427H113.651V38.5871H112.733V41.2618H112.325V38.5871H111.785V38.2427H112.325V37.8692C112.325 37.3299 112.645 36.9746 113.238 36.9746H113.239ZM115.167 37.2844C115.167 37.4502 115.041 37.5832 114.868 37.5832C114.695 37.5832 114.57 37.452 114.57 37.2898C114.57 37.1277 114.701 37.0038 114.868 37.0038C115.036 37.0038 115.167 37.1295 115.167 37.2844ZM114.662 38.2427H115.071V41.2618H114.662V38.2427Z" fill="#C8E3FF"></path><path d="M118.835 39.8768H116.31C116.355 40.5072 116.838 40.9263 117.498 40.9263C117.866 40.9263 118.192 40.7951 118.421 40.5309L118.651 40.7951C118.381 41.1158 117.962 41.2889 117.487 41.2889C116.545 41.2889 115.903 40.6457 115.903 39.7511C115.903 38.8565 116.528 38.2188 117.377 38.2188C118.226 38.2188 118.84 38.8437 118.84 39.7511C118.84 39.7857 118.835 39.8312 118.835 39.8768ZM116.31 39.5725H118.451C118.4 38.9822 117.968 38.5686 117.377 38.5686C116.787 38.5686 116.361 38.9822 116.31 39.5725Z" fill="#C8E3FF"></path><path d="M122.428 37.002V41.26H122.038V40.6624C121.792 41.0705 121.373 41.2874 120.874 41.2874C120.014 41.2874 119.371 40.6624 119.371 39.7496C119.371 38.8367 120.014 38.2172 120.874 38.2172C121.357 38.2172 121.768 38.4231 122.022 38.8149V37.002H122.43H122.428ZM122.025 39.7496C122.025 39.0444 121.543 38.5725 120.907 38.5725C120.271 38.5725 119.782 39.0426 119.782 39.7496C119.782 40.4565 120.265 40.9266 120.907 40.9266C121.548 40.9266 122.025 40.4565 122.025 39.7496Z" fill="#C8E3FF"></path><path d="M124.766 39.7511C124.766 38.851 125.42 38.2188 126.322 38.2188C126.832 38.2188 127.264 38.4192 127.504 38.8164L127.2 39.0223C126.994 38.718 126.672 38.574 126.322 38.574C125.662 38.574 125.179 39.0441 125.179 39.7511C125.179 40.458 125.662 40.9281 126.322 40.9281C126.672 40.9281 126.994 40.7896 127.2 40.4872L127.504 40.6931C127.264 41.083 126.832 41.2907 126.322 41.2907C125.422 41.2907 124.766 40.653 124.766 39.7529V39.7511Z" fill="#C8E3FF"></path><path d="M127.945 39.7511C127.945 38.8565 128.599 38.2188 129.483 38.2188C130.367 38.2188 131.015 38.8565 131.015 39.7511C131.015 40.6457 130.367 41.2889 129.483 41.2889C128.599 41.2889 127.945 40.6457 127.945 39.7511ZM130.602 39.7511C130.602 39.0459 130.126 38.574 129.483 38.574C128.84 38.574 128.359 39.0441 128.359 39.7511C128.359 40.458 128.84 40.9281 129.483 40.9281C130.126 40.9281 130.602 40.458 130.602 39.7511Z" fill="#C8E3FF"></path><path d="M136.828 39.5108V41.2618H136.42V39.5509C136.42 38.9132 136.099 38.587 135.552 38.587C134.933 38.587 134.543 38.9897 134.543 39.6766V41.2599H134.135V39.5491C134.135 38.9113 133.814 38.5852 133.262 38.5852C132.648 38.5852 132.253 38.9879 132.253 39.6748V41.2581H131.844V38.239H132.234V38.7893C132.448 38.4285 132.838 38.2153 133.342 38.2153C133.847 38.2153 134.231 38.4285 134.415 38.853C134.634 38.4631 135.064 38.2153 135.609 38.2153C136.343 38.2153 136.826 38.6399 136.826 39.5071L136.828 39.5108Z" fill="#C8E3FF"></path><path d="M142.919 39.5108V41.2618H142.511V39.5509C142.511 38.9132 142.19 38.587 141.644 38.587C141.024 38.587 140.634 38.9897 140.634 39.6766V41.2599H140.226V39.5491C140.226 38.9113 139.905 38.5852 139.353 38.5852C138.739 38.5852 138.344 38.9879 138.344 39.6748V41.2581H137.936V38.239H138.326V38.7893C138.539 38.4285 138.929 38.2153 139.433 38.2153C139.938 38.2153 140.323 38.4285 140.507 38.853C140.725 38.4631 141.155 38.2153 141.7 38.2153C142.434 38.2153 142.917 38.6399 142.917 39.5071L142.919 39.5108Z" fill="#C8E3FF"></path><path d="M146.667 39.8768H144.142C144.187 40.5072 144.67 40.9263 145.33 40.9263C145.698 40.9263 146.024 40.7951 146.253 40.5309L146.483 40.7951C146.213 41.1158 145.794 41.2889 145.319 41.2889C144.379 41.2889 143.735 40.6457 143.735 39.7511C143.735 38.8565 144.36 38.2188 145.209 38.2188C146.058 38.2188 146.673 38.8437 146.673 39.7511C146.673 39.7857 146.667 39.8312 146.667 39.8768ZM144.142 39.5725H146.283C146.232 38.9822 145.802 38.5686 145.209 38.5686C144.617 38.5686 144.195 38.9822 144.142 39.5725Z" fill="#C8E3FF"></path><path d="M149.025 38.2191V38.6145C148.99 38.6145 148.956 38.609 148.926 38.609C148.296 38.609 147.91 39.0099 147.91 39.7223V41.2601H147.502V38.241H147.892V38.8313C148.081 38.4305 148.465 38.2173 149.021 38.2173L149.025 38.2191Z" fill="#C8E3FF"></path><path d="M149.427 39.7511C149.427 38.851 150.081 38.2188 150.983 38.2188C151.494 38.2188 151.925 38.4192 152.166 38.8164L151.862 39.0223C151.656 38.718 151.333 38.574 150.983 38.574C150.324 38.574 149.841 39.0441 149.841 39.7511C149.841 40.458 150.324 40.9281 150.983 40.9281C151.333 40.9281 151.656 40.7896 151.862 40.4872L152.166 40.6931C151.925 41.083 151.494 41.2907 150.983 41.2907C150.083 41.2907 149.427 40.653 149.427 39.7529V39.7511Z" fill="#C8E3FF"></path><path d="M152.871 37.2895C152.871 37.1346 153.002 37.0034 153.17 37.0034C153.338 37.0034 153.469 37.1291 153.469 37.284C153.469 37.4498 153.343 37.5828 153.17 37.5828C152.997 37.5828 152.871 37.4516 152.871 37.2895ZM152.962 38.2424H153.37V41.2615H152.962V38.2424Z" fill="#C8E3FF"></path><path d="M156.785 39.3888V41.2601H156.395V40.79C156.211 41.0997 155.856 41.2892 155.356 41.2892C154.673 41.2892 154.254 40.9339 154.254 40.411C154.254 39.9464 154.553 39.5565 155.418 39.5565H156.377V39.3724C156.377 38.8568 156.083 38.5744 155.522 38.5744C155.132 38.5744 154.764 38.7129 154.518 38.9297L154.334 38.6254C154.638 38.3667 155.087 38.2173 155.562 38.2173C156.342 38.2173 156.785 38.6072 156.785 39.3888ZM156.377 40.3527V39.8589H155.429C154.844 39.8589 154.655 40.0885 154.655 40.3982C154.655 40.7481 154.935 40.9667 155.418 40.9667C155.901 40.9667 156.216 40.7481 156.377 40.3527Z" fill="#C8E3FF"></path><path d="M157.893 37.002H158.301V41.26H157.893V37.002Z" fill="#C8E3FF"></path><path d="M159.345 37.2895C159.345 37.1346 159.476 37.0034 159.644 37.0034C159.811 37.0034 159.943 37.1291 159.943 37.284C159.943 37.4498 159.817 37.5828 159.644 37.5828C159.471 37.5828 159.345 37.4516 159.345 37.2895ZM159.436 38.2424H159.844V41.2615H159.436V38.2424Z" fill="#C8E3FF"></path><path d="M163.109 40.9209V41.2598H160.653V40.9902L162.552 38.5851H160.686V38.2407H163.073V38.5104L161.174 40.9209H163.108H163.109Z" fill="#C8E3FF"></path><path d="M166.192 39.3888V41.2601H165.802V40.79C165.618 41.0997 165.263 41.2892 164.764 41.2892C164.08 41.2892 163.661 40.9339 163.661 40.411C163.661 39.9464 163.96 39.5565 164.826 39.5565H165.784V39.3724C165.784 38.8568 165.491 38.5744 164.93 38.5744C164.54 38.5744 164.172 38.7129 163.926 38.9297L163.742 38.6254C164.046 38.3667 164.494 38.2173 164.97 38.2173C165.749 38.2173 166.192 38.6072 166.192 39.3888ZM165.784 40.3527V39.8589H164.837C164.252 39.8589 164.062 40.0885 164.062 40.3982C164.062 40.7481 164.343 40.9667 164.826 40.9667C165.309 40.9667 165.624 40.7481 165.784 40.3527Z" fill="#C8E3FF"></path><path d="M168.889 41.0757C168.729 41.2196 168.486 41.2889 168.251 41.2889C167.683 41.2889 167.367 40.9682 167.367 40.4107V38.585H166.828V38.2406H167.367V37.5811H167.776V38.2406H168.694V38.585H167.776V40.387C167.776 40.7423 167.96 40.9372 168.299 40.9372C168.464 40.9372 168.632 40.8862 168.747 40.7824L168.891 41.0757H168.889Z" fill="#C8E3FF"></path><path d="M169.538 37.2895C169.538 37.1346 169.669 37.0034 169.836 37.0034C170.004 37.0034 170.135 37.1291 170.135 37.284C170.135 37.4498 170.01 37.5828 169.836 37.5828C169.663 37.5828 169.538 37.4516 169.538 37.2895ZM169.629 38.2424H170.037V41.2615H169.629V38.2424Z" fill="#C8E3FF"></path><path d="M170.87 39.7511C170.87 38.8565 171.524 38.2188 172.407 38.2188C173.291 38.2188 173.94 38.8565 173.94 39.7511C173.94 40.6457 173.291 41.2889 172.407 41.2889C171.524 41.2889 170.87 40.6457 170.87 39.7511ZM173.526 39.7511C173.526 39.0459 173.051 38.574 172.407 38.574C171.764 38.574 171.283 39.0441 171.283 39.7511C171.283 40.458 171.766 40.9281 172.407 40.9281C173.049 40.9281 173.526 40.458 173.526 39.7511Z" fill="#C8E3FF"></path><path d="M177.551 39.5109V41.2619H177.143V39.551C177.143 38.9133 176.809 38.5872 176.235 38.5872C175.587 38.5872 175.18 38.9898 175.18 39.6767V41.2601H174.772V38.241H175.162V38.7967C175.381 38.4286 175.787 38.2173 176.31 38.2173C177.044 38.2173 177.549 38.6418 177.549 39.5091L177.551 39.5109Z" fill="#C8E3FF"></path></g><defs><clipPath id="clip0_132_320"><rect width="177.551" height="50" fill="white"></rect></clipPath></defs></svg>